<!-- Generated by IcoMoon.io -->
<svg version="1.1" xmlns="http://www.w3.org/2000/svg" width="1024" height="1024" viewBox="0 0 1024 1024">
<title></title>
<g id="icomoon-ignore">
</g>
<path fill="#000" d="M512 112.811c126.507 95.488 275.499 128.171 380.245 138.667-28.075 300.885-208.725 537.301-380.245 667.947-171.563-130.645-352.213-367.061-380.245-667.989 104.704-10.453 253.739-43.136 380.245-138.624zM512 0c-127.829 127.787-319.403 170.667-469.333 170.667 0 366.208 216.192 686.805 469.333 853.333 253.099-166.528 469.333-487.125 469.333-853.333-149.973 0-341.589-42.88-469.333-170.667zM682.667 585.771l-118.229-116.736 116.608-117.803-52.608-52.565-116.779 118.315-118.187-116.693-52.139 52.139 118.357 117.205-116.736 118.229 52.181 52.139 117.12-118.315 117.845 116.693 52.565-52.608z"></path>
</svg>
