<!-- Generated by IcoMoon.io -->
<svg version="1.1" xmlns="http://www.w3.org/2000/svg" width="1024" height="1024" viewBox="0 0 1024 1024">
<title></title>
<g id="icomoon-ignore">
</g>
<path fill="#000" d="M795.691 323.627c-47.104 239.744-193.877 403.883-283.691 484.864v-592.341c95.275 59.264 196.651 90.88 283.691 107.477zM981.333 170.667c0 366.208-216.235 686.805-469.333 853.333-253.099-166.528-469.333-487.125-469.333-853.333 149.931 0 341.547-42.88 469.333-170.667 127.787 127.787 319.403 170.667 469.333 170.667zM892.245 251.477c-104.747-10.496-253.739-43.179-380.245-138.667-126.507 95.488-275.499 128.171-380.245 138.667 28.075 300.885 208.683 537.301 380.245 667.947 171.563-130.645 352.171-367.061 380.245-667.947z"></path>
</svg>
