<!-- Generated by IcoMoon.io -->
<svg version="1.1" xmlns="http://www.w3.org/2000/svg" width="1024" height="1024" viewBox="0 0 1024 1024">
<title></title>
<g id="icomoon-ignore">
</g>
<path fill="#000" d="M512 112.811c126.507 95.488 275.499 128.171 380.245 138.667-28.075 300.885-208.725 537.301-380.245 667.947-171.563-130.645-352.213-367.061-380.245-667.989 104.704-10.453 253.739-43.136 380.245-138.624zM512 0c-127.829 127.787-319.403 170.667-469.333 170.667 0 366.208 216.192 686.805 469.333 853.333 253.099-166.528 469.333-487.125 469.333-853.333-149.973 0-341.589-42.88-469.333-170.667zM673.877 341.333l-186.923 190.933-94.507-90.581-52.779 52.864 147.285 143.445 239.744-243.84-52.821-52.821z"></path>
</svg>
