<?xml version="1.0" standalone="no"?>
<!DOCTYPE svg PUBLIC "-//W3C//DTD SVG 20010904//EN"
 "http://www.w3.org/TR/2001/REC-SVG-20010904/DTD/svg10.dtd">
<svg version="1.0" xmlns="http://www.w3.org/2000/svg"
 width="512.000000pt" height="512.000000pt" viewBox="0 0 512.000000 512.000000"
 preserveAspectRatio="xMidYMid meet">
<metadata>
Created by potrace 1.11, written by Peter Selinger 2001-2013
</metadata>
<g transform="translate(0.000000,512.000000) scale(0.100000,-0.100000)"
fill="#000000" stroke="none">
<path d="M1352 4977 l-142 -142 0 -48 0 -47 40 0 40 0 0 -40 0 -40 -40 0 -40
0 0 -2330 0 -2330 1350 0 1350 0 0 2330 0 2330 -40 0 -40 0 0 40 0 40 40 0 40
0 0 48 0 47 -143 143 -142 142 -1065 0 -1065 0 -143 -143z m2286 121 c7 -7 12
-16 12 -20 0 -4 -490 -8 -1090 -8 -600 0 -1090 4 -1090 8 0 31 22 32 1090 32
816 0 1069 -3 1078 -12z m-398 -468 l0 -30 -669 0 -669 0 6 22 c4 17 2 20 -11
15 -11 -4 -17 -1 -17 8 0 13 89 15 680 15 l680 0 0 -30z m330 -420 l0 -30
-315 0 -315 0 0 30 0 30 315 0 315 0 0 -30z m0 -460 l0 -30 -315 0 -315 0 0
30 0 30 315 0 315 0 0 -30z m-18 -460 l-17 -30 -287 0 c-249 0 -288 2 -288 15
0 8 -4 15 -10 15 -5 0 -10 7 -10 15 0 13 42 15 315 15 l314 0 -17 -30z m18
-480 l0 -30 -315 0 -315 0 0 30 0 30 315 0 315 0 0 -30z m-821 -1357 l40 -28
1 -86 0 -86 -40 -27 c-38 -25 -44 -26 -190 -26 -146 0 -152 1 -190 26 l-40 27
0 86 1 86 37 27 c36 27 40 27 189 28 151 0 153 0 192 -27z m-616 -1193 c-3
-11 0 -20 6 -20 6 0 11 -4 11 -10 0 -6 -100 -10 -280 -10 l-280 0 0 30 0 30
274 0 c269 0 274 0 269 -20z m1297 -10 l0 -30 -130 0 c-136 0 -140 2 -124 44
5 13 26 16 130 16 l124 0 0 -30z"/>
<path d="M2410 1345 l0 -85 98 0 c97 0 122 8 122 37 0 10 -20 13 -75 13 l-75
0 0 60 0 60 -35 0 -35 0 0 -85z"/>
<path d="M2560 1395 c0 -22 4 -25 40 -25 36 0 40 -2 40 -25 0 -30 15 -33 30
-4 10 17 8 21 -9 26 -14 3 -21 13 -21 29 0 21 -5 24 -40 24 -36 0 -40 -2 -40
-25z"/>
</g>
</svg>
