<?xml version="1.0" encoding="UTF-8" standalone="no"?>
<!DOCTYPE svg PUBLIC "-//W3C//DTD SVG 1.1//EN"
 "http://www.w3.org/Graphics/SVG/1.1/DTD/svg11.dtd">
<!-- Generated by graphviz version 2.38.0 (20140413.2041)
 -->
<!-- Title: G Pages: 1 -->
<svg width="754pt" height="1428pt"
 viewBox="0.00 0.00 753.86 1428.00" xmlns="http://www.w3.org/2000/svg" xmlns:xlink="http://www.w3.org/1999/xlink">
<g id="graph0" class="graph" transform="scale(1 1) rotate(0) translate(4 1424)">
<title>G</title>
<polygon fill="white" stroke="none" points="-4,4 -4,-1424 749.864,-1424 749.864,4 -4,4"/>
<g id="clust1" class="cluster"><title>cluster_Global</title>
<path fill="none" stroke="gray" d="M322.723,-98C322.723,-98 725.864,-98 725.864,-98 731.864,-98 737.864,-104 737.864,-110 737.864,-110 737.864,-1400 737.864,-1400 737.864,-1406 731.864,-1412 725.864,-1412 725.864,-1412 322.723,-1412 322.723,-1412 316.723,-1412 310.723,-1406 310.723,-1400 310.723,-1400 310.723,-110 310.723,-110 310.723,-104 316.723,-98 322.723,-98"/>
<text text-anchor="middle" x="524.294" y="-1399.2" font-family="Times,serif" font-size="11.00" fill="gray">Global</text>
</g>
<!-- \\SettingsDevicesNewForm -->
<g id="node1" class="node"><title>\\SettingsDevicesNewForm</title>
<polygon fill="none" stroke="black" points="722.864,-466 557.864,-466 557.864,-430 722.864,-430 722.864,-466"/>
<text text-anchor="middle" x="640.364" y="-445.2" font-family="Courier,monospace" font-size="11.00">SettingsDevicesNewForm</text>
</g>
<!-- \\Phalcon\\Forms\\Form -->
<g id="node27" class="node"><title>\\Phalcon\\Forms\\Form</title>
<ellipse fill="none" stroke="black" cx="374.223" cy="-72" rx="89.0842" ry="18"/>
<text text-anchor="middle" x="374.223" y="-68.3" font-family="Times,serif" font-size="14.00" fill="gray">\Phalcon\Forms\Form</text>
</g>
<!-- \\SettingsDevicesNewForm&#45;&gt;\\Phalcon\\Forms\\Form -->
<g id="edge1" class="edge"><title>\\SettingsDevicesNewForm&#45;&gt;\\Phalcon\\Forms\\Form</title>
<path fill="none" stroke="black" d="M561.07,-429.761C557.359,-427.209 553.916,-424.304 550.864,-421 449.895,-311.679 584.489,-198.829 478.864,-94 474.784,-89.9508 470.156,-86.5624 465.174,-83.7337"/>
<polygon fill="none" stroke="black" points="466.392,-80.4349 455.867,-79.2249 463.34,-86.7346 466.392,-80.4349"/>
</g>
<!-- \\PHPSysInfo -->
<g id="node2" class="node"><title>\\PHPSysInfo</title>
<polygon fill="none" stroke="black" points="682.364,-1384 598.364,-1384 598.364,-1348 682.364,-1348 682.364,-1384"/>
<text text-anchor="middle" x="640.364" y="-1363.2" font-family="Courier,monospace" font-size="11.00">PHPSysInfo</text>
</g>
<!-- \\BaseModel -->
<g id="node24" class="node"><title>\\BaseModel</title>
<polygon fill="none" stroke="black" points="412.723,-1195 335.723,-1195 335.723,-1159 412.723,-1159 412.723,-1195"/>
<text text-anchor="middle" x="374.223" y="-1174.2" font-family="Courier,monospace" font-size="11.00">BaseModel</text>
</g>
<!-- \\PHPSysInfo&#45;&gt;\\BaseModel -->
<g id="edge2" class="edge"><title>\\PHPSysInfo&#45;&gt;\\BaseModel</title>
<path fill="none" stroke="black" d="M598.143,-1357.54C582.681,-1353.32 565.357,-1347.31 550.864,-1339 487.062,-1302.42 427.393,-1238.81 396.731,-1203.15"/>
<polygon fill="none" stroke="black" points="399.071,-1200.5 389.929,-1195.14 393.735,-1205.03 399.071,-1200.5"/>
</g>
<!-- \\KodiTVShowEpisodes -->
<g id="node3" class="node"><title>\\KodiTVShowEpisodes</title>
<polygon fill="none" stroke="black" points="709.364,-1330 571.364,-1330 571.364,-1294 709.364,-1294 709.364,-1330"/>
<text text-anchor="middle" x="640.364" y="-1309.2" font-family="Courier,monospace" font-size="11.00">KodiTVShowEpisodes</text>
</g>
<!-- \\KodiTVShowEpisodes&#45;&gt;\\BaseModel -->
<g id="edge3" class="edge"><title>\\KodiTVShowEpisodes&#45;&gt;\\BaseModel</title>
<path fill="none" stroke="black" d="M573.424,-1293.94C565.71,-1291.22 558.039,-1288.24 550.864,-1285 498.371,-1261.32 442.495,-1224.76 408.215,-1200.85"/>
<polygon fill="none" stroke="black" points="410.173,-1197.95 399.98,-1195.06 406.147,-1203.67 410.173,-1197.95"/>
</g>
<!-- \\KodiMovies -->
<g id="node4" class="node"><title>\\KodiMovies</title>
<polygon fill="none" stroke="black" points="682.364,-1276 598.364,-1276 598.364,-1240 682.364,-1240 682.364,-1276"/>
<text text-anchor="middle" x="640.364" y="-1255.2" font-family="Courier,monospace" font-size="11.00">KodiMovies</text>
</g>
<!-- \\KodiMovies&#45;&gt;\\BaseModel -->
<g id="edge4" class="edge"><title>\\KodiMovies&#45;&gt;\\BaseModel</title>
<path fill="none" stroke="black" d="M597.937,-1245.38C583.087,-1240.85 566.223,-1235.7 550.864,-1231 507.368,-1217.68 457.834,-1202.44 422.482,-1191.56"/>
<polygon fill="none" stroke="black" points="423.492,-1188.21 412.904,-1188.61 421.432,-1194.9 423.492,-1188.21"/>
</g>
<!-- \\SettingsMenuItemsForm -->
<g id="node5" class="node"><title>\\SettingsMenuItemsForm</title>
<polygon fill="none" stroke="black" points="719.364,-412 561.364,-412 561.364,-376 719.364,-376 719.364,-412"/>
<text text-anchor="middle" x="640.364" y="-391.2" font-family="Courier,monospace" font-size="11.00">SettingsMenuItemsForm</text>
</g>
<!-- \\SettingsMenuItemsForm&#45;&gt;\\Phalcon\\Forms\\Form -->
<g id="edge5" class="edge"><title>\\SettingsMenuItemsForm&#45;&gt;\\Phalcon\\Forms\\Form</title>
<path fill="none" stroke="black" d="M561.634,-375.878C557.729,-373.299 554.094,-370.356 550.864,-367 463.848,-276.59 569.727,-180.543 478.864,-94 474.702,-90.0356 470.011,-86.7113 464.983,-83.9298"/>
<polygon fill="none" stroke="black" points="466.146,-80.6077 455.611,-79.4884 463.149,-86.9335 466.146,-80.6077"/>
</g>
<!-- \\Users -->
<g id="node6" class="node"><title>\\Users</title>
<polygon fill="none" stroke="black" points="667.364,-1222 613.364,-1222 613.364,-1186 667.364,-1186 667.364,-1222"/>
<text text-anchor="middle" x="640.364" y="-1201.2" font-family="Courier,monospace" font-size="11.00">Users</text>
</g>
<!-- \\Users&#45;&gt;\\BaseModel -->
<g id="edge6" class="edge"><title>\\Users&#45;&gt;\\BaseModel</title>
<path fill="none" stroke="black" d="M613.071,-1201.31C568.724,-1196.78 478.457,-1187.55 422.769,-1181.86"/>
<polygon fill="none" stroke="black" points="423.096,-1178.38 412.792,-1180.84 422.384,-1185.34 423.096,-1178.38"/>
</g>
<!-- \\IndexController -->
<g id="node7" class="node"><title>\\IndexController</title>
<polygon fill="none" stroke="black" points="699.364,-790 581.364,-790 581.364,-754 699.364,-754 699.364,-790"/>
<text text-anchor="middle" x="640.364" y="-769.2" font-family="Courier,monospace" font-size="11.00">IndexController</text>
</g>
<!-- \\BaseController -->
<g id="node26" class="node"><title>\\BaseController</title>
<polygon fill="none" stroke="black" points="429.723,-790 318.723,-790 318.723,-754 429.723,-754 429.723,-790"/>
<text text-anchor="middle" x="374.223" y="-769.2" font-family="Courier,monospace" font-size="11.00">BaseController</text>
</g>
<!-- \\IndexController&#45;&gt;\\BaseController -->
<g id="edge7" class="edge"><title>\\IndexController&#45;&gt;\\BaseController</title>
<path fill="none" stroke="black" d="M581.07,-772C539.297,-772 483.025,-772 439.873,-772"/>
<polygon fill="none" stroke="black" points="439.762,-768.5 429.762,-772 439.762,-775.5 439.762,-768.5"/>
</g>
<!-- \\SettingsController -->
<g id="node8" class="node"><title>\\SettingsController</title>
<polygon fill="none" stroke="black" points="709.364,-736 571.364,-736 571.364,-700 709.364,-700 709.364,-736"/>
<text text-anchor="middle" x="640.364" y="-715.2" font-family="Courier,monospace" font-size="11.00">SettingsController</text>
</g>
<!-- \\SettingsController&#45;&gt;\\BaseController -->
<g id="edge8" class="edge"><title>\\SettingsController&#45;&gt;\\BaseController</title>
<path fill="none" stroke="black" d="M571.341,-731.906C530.898,-740.174 479.883,-750.604 440.022,-758.753"/>
<polygon fill="none" stroke="black" points="439.238,-755.341 430.141,-760.773 440.64,-762.199 439.238,-755.341"/>
</g>
<!-- \\SettingsDevicesForm -->
<g id="node9" class="node"><title>\\SettingsDevicesForm</title>
<polygon fill="none" stroke="black" points="712.864,-358 567.864,-358 567.864,-322 712.864,-322 712.864,-358"/>
<text text-anchor="middle" x="640.364" y="-337.2" font-family="Courier,monospace" font-size="11.00">SettingsDevicesForm</text>
</g>
<!-- \\SettingsDevicesForm&#45;&gt;\\Phalcon\\Forms\\Form -->
<g id="edge9" class="edge"><title>\\SettingsDevicesForm&#45;&gt;\\Phalcon\\Forms\\Form</title>
<path fill="none" stroke="black" d="M567.768,-325.063C561.576,-321.802 555.8,-317.831 550.864,-313 477.639,-241.335 555.134,-162.415 478.864,-94 474.434,-90.0264 469.469,-86.7059 464.174,-83.9366"/>
<polygon fill="none" stroke="black" points="465.542,-80.7141 454.989,-79.7789 462.656,-87.0912 465.542,-80.7141"/>
</g>
<!-- \\SettingsGeneralForm -->
<g id="node10" class="node"><title>\\SettingsGeneralForm</title>
<polygon fill="none" stroke="black" points="712.864,-304 567.864,-304 567.864,-268 712.864,-268 712.864,-304"/>
<text text-anchor="middle" x="640.364" y="-283.2" font-family="Courier,monospace" font-size="11.00">SettingsGeneralForm</text>
</g>
<!-- \\SettingsGeneralForm&#45;&gt;\\Phalcon\\Forms\\Form -->
<g id="edge10" class="edge"><title>\\SettingsGeneralForm&#45;&gt;\\Phalcon\\Forms\\Form</title>
<path fill="none" stroke="black" d="M567.79,-270.35C561.668,-267.23 555.902,-263.488 550.864,-259 491.121,-205.779 540.864,-144.575 478.864,-94 474.161,-90.1641 468.95,-86.9514 463.438,-84.2652"/>
<polygon fill="none" stroke="black" points="464.489,-80.909 453.916,-80.2243 461.754,-87.3528 464.489,-80.909"/>
</g>
<!-- \\RssController -->
<g id="node11" class="node"><title>\\RssController</title>
<polygon fill="none" stroke="black" points="692.364,-682 588.364,-682 588.364,-646 692.364,-646 692.364,-682"/>
<text text-anchor="middle" x="640.364" y="-661.2" font-family="Courier,monospace" font-size="11.00">RssController</text>
</g>
<!-- \\RssController&#45;&gt;\\BaseController -->
<g id="edge11" class="edge"><title>\\RssController&#45;&gt;\\BaseController</title>
<path fill="none" stroke="black" d="M587.952,-678.392C575.69,-682.18 562.722,-686.481 550.864,-691 505.209,-708.399 454.714,-732.185 419.629,-749.478"/>
<polygon fill="none" stroke="black" points="418.012,-746.373 410.606,-753.95 421.12,-752.645 418.012,-746.373"/>
</g>
<!-- \\Devices -->
<g id="node12" class="node"><title>\\Devices</title>
<polygon fill="none" stroke="black" points="672.364,-1168 608.364,-1168 608.364,-1132 672.364,-1132 672.364,-1168"/>
<text text-anchor="middle" x="640.364" y="-1147.2" font-family="Courier,monospace" font-size="11.00">Devices</text>
</g>
<!-- \\Devices&#45;&gt;\\BaseModel -->
<g id="edge12" class="edge"><title>\\Devices&#45;&gt;\\BaseModel</title>
<path fill="none" stroke="black" d="M608.287,-1153.18C562.549,-1157.85 476.727,-1166.62 422.961,-1172.12"/>
<polygon fill="none" stroke="black" points="422.576,-1168.64 412.984,-1173.14 423.288,-1175.61 422.576,-1168.64"/>
</g>
<!-- \\LoginForm -->
<g id="node13" class="node"><title>\\LoginForm</title>
<polygon fill="none" stroke="black" points="678.864,-196 601.864,-196 601.864,-160 678.864,-160 678.864,-196"/>
<text text-anchor="middle" x="640.364" y="-175.2" font-family="Courier,monospace" font-size="11.00">LoginForm</text>
</g>
<!-- \\LoginForm&#45;&gt;\\Phalcon\\Forms\\Form -->
<g id="edge13" class="edge"><title>\\LoginForm&#45;&gt;\\Phalcon\\Forms\\Form</title>
<path fill="none" stroke="black" d="M601.549,-169.795C585.392,-165.455 566.656,-159.279 550.864,-151 514.717,-132.049 515.801,-111.362 478.864,-94 471.783,-90.6714 464.193,-87.8415 456.459,-85.4366"/>
<polygon fill="none" stroke="black" points="457.191,-82.0055 446.614,-82.612 455.261,-88.7341 457.191,-82.0055"/>
</g>
<!-- \\MenuItems -->
<g id="node14" class="node"><title>\\MenuItems</title>
<polygon fill="none" stroke="black" points="678.864,-1114 601.864,-1114 601.864,-1078 678.864,-1078 678.864,-1114"/>
<text text-anchor="middle" x="640.364" y="-1093.2" font-family="Courier,monospace" font-size="11.00">MenuItems</text>
</g>
<!-- \\MenuItems&#45;&gt;\\BaseModel -->
<g id="edge14" class="edge"><title>\\MenuItems&#45;&gt;\\BaseModel</title>
<path fill="none" stroke="black" d="M601.46,-1107.54C585.795,-1112.32 567.452,-1117.92 550.864,-1123 507.368,-1136.32 457.834,-1151.56 422.482,-1162.44"/>
<polygon fill="none" stroke="black" points="421.432,-1159.1 412.904,-1165.39 423.492,-1165.79 421.432,-1159.1"/>
</g>
<!-- \\AboutController -->
<g id="node15" class="node"><title>\\AboutController</title>
<polygon fill="none" stroke="black" points="699.364,-628 581.364,-628 581.364,-592 699.364,-592 699.364,-628"/>
<text text-anchor="middle" x="640.364" y="-607.2" font-family="Courier,monospace" font-size="11.00">AboutController</text>
</g>
<!-- \\AboutController&#45;&gt;\\BaseController -->
<g id="edge15" class="edge"><title>\\AboutController&#45;&gt;\\BaseController</title>
<path fill="none" stroke="black" d="M581.053,-624.518C570.736,-627.998 560.289,-632.145 550.864,-637 492.624,-667.003 434.123,-716.851 401.495,-746.85"/>
<polygon fill="none" stroke="black" points="399.106,-744.292 394.16,-753.661 403.869,-749.421 399.106,-744.292"/>
</g>
<!-- \\KodiMusic -->
<g id="node16" class="node"><title>\\KodiMusic</title>
<polygon fill="none" stroke="black" points="678.864,-1060 601.864,-1060 601.864,-1024 678.864,-1024 678.864,-1060"/>
<text text-anchor="middle" x="640.364" y="-1039.2" font-family="Courier,monospace" font-size="11.00">KodiMusic</text>
</g>
<!-- \\KodiMusic&#45;&gt;\\BaseModel -->
<g id="edge16" class="edge"><title>\\KodiMusic&#45;&gt;\\BaseModel</title>
<path fill="none" stroke="black" d="M601.559,-1051.24C585.576,-1055.73 566.971,-1061.74 550.864,-1069 498.371,-1092.68 442.495,-1129.24 408.215,-1153.15"/>
<polygon fill="none" stroke="black" points="406.147,-1150.33 399.98,-1158.94 410.173,-1156.05 406.147,-1150.33"/>
</g>
<!-- \\SecurityPlugin -->
<g id="node17" class="node"><title>\\SecurityPlugin</title>
<polygon fill="none" stroke="black" points="695.864,-142 584.864,-142 584.864,-106 695.864,-106 695.864,-142"/>
<text text-anchor="middle" x="640.364" y="-121.2" font-family="Courier,monospace" font-size="11.00">SecurityPlugin</text>
</g>
<!-- \\Phalcon\\Mvc\\User\\Plugin -->
<g id="node28" class="node"><title>\\Phalcon\\Mvc\\User\\Plugin</title>
<ellipse fill="none" stroke="black" cx="374.223" cy="-18" rx="104.782" ry="18"/>
<text text-anchor="middle" x="374.223" y="-14.3" font-family="Times,serif" font-size="14.00" fill="gray">\Phalcon\Mvc\User\Plugin</text>
</g>
<!-- \\SecurityPlugin&#45;&gt;\\Phalcon\\Mvc\\User\\Plugin -->
<g id="edge17" class="edge"><title>\\SecurityPlugin&#45;&gt;\\Phalcon\\Mvc\\User\\Plugin</title>
<path fill="none" stroke="black" d="M607.632,-105.984C575.851,-88.5216 525.146,-62.2163 478.864,-45 469.091,-41.3647 458.627,-38.0264 448.243,-35.0295"/>
<polygon fill="none" stroke="black" points="448.909,-31.5819 438.336,-32.2623 447.026,-38.3238 448.909,-31.5819"/>
</g>
<!-- \\DevicesController -->
<g id="node18" class="node"><title>\\DevicesController</title>
<polygon fill="none" stroke="black" points="705.864,-952 574.864,-952 574.864,-916 705.864,-916 705.864,-952"/>
<text text-anchor="middle" x="640.364" y="-931.2" font-family="Courier,monospace" font-size="11.00">DevicesController</text>
</g>
<!-- \\DevicesController&#45;&gt;\\BaseController -->
<g id="edge18" class="edge"><title>\\DevicesController&#45;&gt;\\BaseController</title>
<path fill="none" stroke="black" d="M574.481,-917.177C566.35,-914.211 558.29,-910.825 550.864,-907 492.624,-876.997 434.123,-827.149 401.495,-797.15"/>
<polygon fill="none" stroke="black" points="403.869,-794.579 394.16,-790.339 399.106,-799.708 403.869,-794.579"/>
</g>
<!-- \\Menus -->
<g id="node19" class="node"><title>\\Menus</title>
<polygon fill="none" stroke="black" points="667.364,-1006 613.364,-1006 613.364,-970 667.364,-970 667.364,-1006"/>
<text text-anchor="middle" x="640.364" y="-985.2" font-family="Courier,monospace" font-size="11.00">Menus</text>
</g>
<!-- \\Menus&#45;&gt;\\BaseModel -->
<g id="edge19" class="edge"><title>\\Menus&#45;&gt;\\BaseModel</title>
<path fill="none" stroke="black" d="M613.336,-992.717C595.013,-996.788 570.374,-1003.81 550.864,-1015 487.062,-1051.58 427.393,-1115.19 396.731,-1150.85"/>
<polygon fill="none" stroke="black" points="393.735,-1148.97 389.929,-1158.86 399.071,-1153.5 393.735,-1148.97"/>
</g>
<!-- \\SettingsMenuItemsNewForm -->
<g id="node20" class="node"><title>\\SettingsMenuItemsNewForm</title>
<polygon fill="none" stroke="black" points="729.864,-574 550.864,-574 550.864,-538 729.864,-538 729.864,-574"/>
<text text-anchor="middle" x="640.364" y="-553.2" font-family="Courier,monospace" font-size="11.00">SettingsMenuItemsNewForm</text>
</g>
<!-- \\SettingsMenuItemsNewForm&#45;&gt;\\Phalcon\\Forms\\Form -->
<g id="edge20" class="edge"><title>\\SettingsMenuItemsNewForm&#45;&gt;\\Phalcon\\Forms\\Form</title>
<path fill="none" stroke="black" d="M560.861,-537.95C557.202,-535.35 553.828,-532.383 550.864,-529 421.743,-381.59 614.269,-235.659 478.864,-94 474.932,-89.8863 470.436,-86.4456 465.571,-83.5753"/>
<polygon fill="none" stroke="black" points="466.965,-80.3585 456.457,-79.0026 463.826,-86.6152 466.965,-80.3585"/>
</g>
<!-- \\SessionController -->
<g id="node21" class="node"><title>\\SessionController</title>
<polygon fill="none" stroke="black" points="705.864,-898 574.864,-898 574.864,-862 705.864,-862 705.864,-898"/>
<text text-anchor="middle" x="640.364" y="-877.2" font-family="Courier,monospace" font-size="11.00">SessionController</text>
</g>
<!-- \\SessionController&#45;&gt;\\BaseController -->
<g id="edge21" class="edge"><title>\\SessionController&#45;&gt;\\BaseController</title>
<path fill="none" stroke="black" d="M576.156,-861.867C567.594,-859.076 558.97,-856.089 550.864,-853 505.209,-835.601 454.714,-811.815 419.629,-794.522"/>
<polygon fill="none" stroke="black" points="421.12,-791.355 410.606,-790.05 418.012,-797.627 421.12,-791.355"/>
</g>
<!-- \\SettingsUsersForm -->
<g id="node22" class="node"><title>\\SettingsUsersForm</title>
<polygon fill="none" stroke="black" points="705.864,-250 574.864,-250 574.864,-214 705.864,-214 705.864,-250"/>
<text text-anchor="middle" x="640.364" y="-229.2" font-family="Courier,monospace" font-size="11.00">SettingsUsersForm</text>
</g>
<!-- \\SettingsDashboardForm -->
<g id="node23" class="node"><title>\\SettingsDashboardForm</title>
<polygon fill="none" stroke="black" points="719.364,-520 561.364,-520 561.364,-484 719.364,-484 719.364,-520"/>
<text text-anchor="middle" x="640.364" y="-499.2" font-family="Courier,monospace" font-size="11.00">SettingsDashboardForm</text>
</g>
<!-- \\SettingsDashboardForm&#45;&gt;\\Phalcon\\Forms\\Form -->
<g id="edge22" class="edge"><title>\\SettingsDashboardForm&#45;&gt;\\Phalcon\\Forms\\Form</title>
<path fill="none" stroke="black" d="M561.347,-484.144C557.513,-481.499 553.973,-478.469 550.864,-475 435.849,-346.667 599.348,-217.213 478.864,-94 474.885,-89.9313 470.355,-86.5247 465.464,-83.6796"/>
<polygon fill="none" stroke="black" points="466.826,-80.4484 456.312,-79.143 463.717,-86.7202 466.826,-80.4484"/>
</g>
<!-- \\Phalcon\\Mvc\\Model -->
<g id="node29" class="node"><title>\\Phalcon\\Mvc\\Model</title>
<ellipse fill="none" stroke="black" cx="98.7912" cy="-1177" rx="86.3847" ry="18"/>
<text text-anchor="middle" x="98.7912" y="-1173.3" font-family="Times,serif" font-size="14.00" fill="gray">\Phalcon\Mvc\Model</text>
</g>
<!-- \\BaseModel&#45;&gt;\\Phalcon\\Mvc\\Model -->
<g id="edge23" class="edge"><title>\\BaseModel&#45;&gt;\\Phalcon\\Mvc\\Model</title>
<path fill="none" stroke="black" d="M335.491,-1177C299.519,-1177 243.843,-1177 195.634,-1177"/>
<polygon fill="none" stroke="black" points="195.47,-1173.5 185.47,-1177 195.469,-1180.5 195.47,-1173.5"/>
</g>
<!-- \\KodiController -->
<g id="node25" class="node"><title>\\KodiController</title>
<polygon fill="none" stroke="black" points="695.864,-844 584.864,-844 584.864,-808 695.864,-808 695.864,-844"/>
<text text-anchor="middle" x="640.364" y="-823.2" font-family="Courier,monospace" font-size="11.00">KodiController</text>
</g>
<!-- \\KodiController&#45;&gt;\\BaseController -->
<g id="edge24" class="edge"><title>\\KodiController&#45;&gt;\\BaseController</title>
<path fill="none" stroke="black" d="M584.634,-814.811C542.488,-806.195 484.119,-794.262 439.707,-785.183"/>
<polygon fill="none" stroke="black" points="440.382,-781.748 429.883,-783.175 438.98,-788.607 440.382,-781.748"/>
</g>
<!-- \\Phalcon\\Mvc\\Controller -->
<g id="node30" class="node"><title>\\Phalcon\\Mvc\\Controller</title>
<ellipse fill="none" stroke="black" cx="98.7912" cy="-772" rx="98.5829" ry="18"/>
<text text-anchor="middle" x="98.7912" y="-768.3" font-family="Times,serif" font-size="14.00" fill="gray">\Phalcon\Mvc\Controller</text>
</g>
<!-- \\BaseController&#45;&gt;\\Phalcon\\Mvc\\Controller -->
<g id="edge25" class="edge"><title>\\BaseController&#45;&gt;\\Phalcon\\Mvc\\Controller</title>
<path fill="none" stroke="black" d="M318.547,-772C286.859,-772 245.839,-772 207.896,-772"/>
<polygon fill="none" stroke="black" points="207.807,-768.5 197.807,-772 207.807,-775.5 207.807,-768.5"/>
</g>
</g>
</svg>
