<svg version="1" xmlns="http://www.w3.org/2000/svg" width="682.667" height="682.667" viewBox="0 0 512.000000 512.000000"><path d="M139.3 23.3L126 36.6V47h4c3.9 0 4 .1 4 3.5s-.1 3.5-4 3.5h-4v448h260V54h-4c-3.9 0-4-.1-4-3.5s.1-3.5 4-3.5h4V36.5l-13.4-13.3L359.2 10H255.9l-103.4.1-13.2 13.2zM362.4 15c2 2.2 3.6 4.6 3.6 5.3 0 .8-.4.7-1-.3-.5-.8-1-1.1-1-.6 0 .5-.8.2-1.7-.5-1.7-1.3-1.7-1.2 0 .7 1.7 2.1 1.7 2.1-.8 1.9-1.4-.2-2.5.2-2.5.8 0 .8-.3.7-.9-.2-.6-.9-1-1-1.6-.2-.9 1.6-3.7-.7-2.8-2.3.3-.6.3-.8-.2-.4-.4.4-1.5.2-2.4-.5-1.4-1-1.4-1-.4.4.7.9.9 2 .5 2.4-.4.5-.1.5.7 0 1-.6 1.2-.4.6.5-.6 1-1.1.9-2.2-.5-.7-1.1-1.3-2.2-1.3-2.7 0-.8-2.8-.6-4.5.3-.5.3-2.2.5-3.7.4-1.5-.1-2.5.2-2.2.6.2.4 1.3.6 2.4.4 1.1-.2 2.2 0 2.5.5.3.5-.4.7-1.5.5-1.1-.2-2 .2-2 .8 0 .8-.3.8-.9-.2-.6-.9-1-1-1.6-.2-.9 1.6-3.7-.7-2.8-2.3.3-.6.3-.8-.2-.4-.4.4-1.5.2-2.4-.5-1.4-1-1.4-1-.4.4.7.9.9 2 .5 2.4-.4.5-.1.5.7 0 1-.6 1.2-.4.6.5-.6 1-1.1.9-2.2-.5-.7-1.1-1.3-2.2-1.3-2.7 0-.6-3.9-.5-4.7.3-1 .7-11.1.3-12.3-.5-.9-.7-.8-.2.3 1.1 1.2 1.4 1.5 2.3.8 2.8-.6.3-1.6-.5-2.2-1.9-.9-1.8-1.8-2.4-3.3-2.1-1.2.2-2.2.4-2.3.6-.8.6-13 .4-13.8-.2-.9-.7-3.6-.6-5.5.1-.3.1-.9.2-1.3.1-.5-.1-.6.3-.3.8.4.5.2 1.2-.4 1.6-.5.3-1-.2-1.1-1.2 0-1.4-.2-1.3-1 .5-.5 1.3-1.4 2-1.9 1.7-.8-.5-.8-1.1-.1-1.9.8-.9.7-1.3-.4-1.3-.8 0-1.2.4-1 .8.3.3-.1 1.2-.9 1.8-1 .8-1.6.8-2.5-.2-.6-.8-.7-1.8-.3-2.2.4-.5.2-.5-.5-.1s-1 1.4-.7 2.4c.3.9-.2.5-1.2-1-1.9-2.9-4.9-3.2-6.4-.8-1.1 1.8-4.3 2.3-3.7.6.3-.7-.1-1.3-.8-1.3-.7 0-1.1.6-.8 1.3.6 1.6-1.4 2.7-2.3 1.3-.4-.8-.3-.9.4-.5.8.5 1 .1.6-.9-.6-1.4-.9-1.3-2.1.5-1.2 1.7-1.8 1.9-2.9.9-1.1-.9-1.4-.8-1.4.2 0 1.1-.2 1.1-1-.1-.9-1.4-1.5-.6-1 1.5.1.5-.1.7-.5.3-.4-.3-.7-1-.7-1.5 0-.4-.4-1.3-.9-1.9-.5-.7-.3-1.1.6-1.1.8 0 1.2.3 1 .7-.2.4.2.7.9.7.8 0 1.2-.6.9-1.3-.8-2.1-4.8-1-4.6 1.2.1 1.8.1 1.8-1.3 0-1.2-1.7-1.4-1.7-1.4-.3 0 1-.7 1.5-2 1.2-1.1-.2-2.2.1-2.6.6-.8 1.4-3.5-1-2.7-2.5.3-.6.3-.8-.2-.4-.4.4-1.5.2-2.4-.5-1.4-1-1.4-1-.4.4.7.9.9 2 .5 2.4-.4.5-.1.5.7 0 1-.6 1.2-.4.6.5-.6 1-1.1.9-2.2-.5-.7-1.1-1.3-2.2-1.3-2.7 0-.6-3.9-.5-4.7.3-1 .7-11.1.3-12.3-.5-.9-.7-.8-.2.3 1.1 1.2 1.4 1.5 2.3.8 2.8-.6.3-1.6-.5-2.2-1.9-.9-1.8-1.8-2.4-3.3-2.1-1.2.2-2.2.4-2.3.6-.8.6-13 .4-13.8-.2-.9-.7-3.6-.6-5.5.1-.3.1-.9.2-1.3.1-.5-.1-.6.3-.3.8.4.5.2 1.2-.4 1.6-.5.3-1-.2-1.1-1.2 0-1.4-.2-1.3-1 .5-.5 1.3-1.4 2-1.9 1.7-.8-.5-.8-1.1-.1-1.9.8-.9.7-1.3-.4-1.3-.8 0-1.2.4-1 .8.3.3-.1 1.2-.9 1.8-1 .8-1.6.8-2.5-.2-.6-.8-.7-1.8-.3-2.2.4-.5.2-.5-.5-.1s-1 1.4-.7 2.4c.3.9-.2.5-1.2-1-1.7-2.5-3.5-3.1-5.9-1.7-.5.4-1.8.5-2.8.4-.9-.2-1.5.1-1.1.6.3.5.9.7 1.4.4.5-.3 1.1-.1 1.5.4.3.6-.3.8-1.5.6-1.1-.2-2.2.1-2.6.6-.4.6-1.1.6-2-.2-.7-.6-1.2-1.5-.9-1.8.2-.4-.2-.8-1-.8s-1.2.4-.9.8c.2.4 0 1-.6 1.4-.5.3-1-.2-1.1-1.2-.1-1.3-.3-1.1-.9.7-.7 2.2-.8 2.2-1 .5-.1-1.1-.2-2.3-.2-2.6.1-.8-4.5-.5-5.4.4-.4.4-1.4.1-2.3-.6-1.4-1-1.4-1-.4.4.7.9 1 1.9.6 2.2-.3.4-1.2-.1-2-1.1-1.2-1.6-1.3-1.6-.6.2.4 1.3.3 1.7-.4 1.3-.6-.4-1.4-.1-1.6.5-.3.7-.6.4-.6-.7-.1-1 1.8-3.9 4.1-6.2l4.2-4.3h205.4l3.6 4zm-205.8 6.8c.1 1.2-.2 1.9-.7 1.6-.4-.2-.5-1.2-.2-2.1.4-1 .2-1.4-.5-.9-.6.3-1.3.2-1.6-.3-.4-.5.2-.8 1.1-.7 1 .2 1.8 1.2 1.9 2.4zm20 .8c.2 1.2 0 1.4-.9.5-.6-.6-1.2-1.8-1.3-2.7-.2-1.2 0-1.4.9-.5.6.6 1.2 1.8 1.3 2.7zm20.1-2c.5 1.3.7 1.3 1.4.2.6-.9.9-.9.9-.1 0 1.7-1.7 2.5-2.5 1.3-.5-.8-1.2-.7-2.3.2-1 .7-1.4.8-1 .4.4-.5.4-1.4-.2-2-.6-.8-.3-1.2 1.1-1.3 1.1-.1 2.3.5 2.6 1.3zm18 .1c.2.6-.1 1.4-.6 1.8-.7.4-.8 0-.4-1.1s.3-1.5-.5-1c-.6.3-1.3.2-1.6-.3-.4-.5.2-.8 1.1-.7.9.2 1.9.8 2 1.3zm19 0c.2.6-.1 1.4-.6 1.8-.7.4-.8 0-.4-1.1s.3-1.5-.5-1c-.6.3-1.3.2-1.6-.3-.4-.5.2-.8 1.1-.7.9.2 1.9.8 2 1.3zm38.9 1.9c.2 1.2 0 1.4-.9.5-.6-.6-1.2-1.8-1.3-2.7-.2-1.2 0-1.4.9-.5.6.6 1.2 1.8 1.3 2.7zm19.9-2.6c.6.3 3.6.6 6.7.5 3.1 0 5.4.3 5.2.7-.3.5-1 .6-1.5.3-.5-.4-.9 0-.9.7 0 1-.2 1-.9-.1-.5-.8-1.1-.9-1.5-.3-.7 1.2-2.4 1.1-4.5-.2-1.1-.7-1.3-.5-.8 1 .7 1.8.6 1.8-.6.2-1.1-1.4-1.6-1.5-2.6-.5-1 .9-1.1.8-.5-.7.5-1.3.4-1.7-.4-1.2-.6.3-1.3.3-1.6-.2-.6-1 2.5-1.2 3.9-.2zm18.2.7c.2.6-.1 1.4-.6 1.8-.7.4-.8 0-.4-1.1s.3-1.5-.5-1c-.6.3-1.3.2-1.6-.3-.4-.5.2-.8 1.1-.7.9.2 1.9.8 2 1.3zm19 0c.2.6-.1 1.4-.6 1.8-.7.4-.8 0-.4-1.1s.3-1.5-.5-1c-.6.3-1.3.2-1.6-.3-.4-.5.2-.8 1.1-.7.9.2 1.9.8 2 1.3zm18.7 1.3c-.6.6-1 .2-1.1-1.2-.2-1.6.1-1.8 1-.9.7.7.8 1.4.1 2.1zm-140-.8c-.3.5-.9.6-1.4.3-.5-.3-1.1-.1-1.4.4-.4.5-1.4.8-2.4.6-.9-.2-2-.4-2.4-.4-.5-.1-.8-.5-.8-.9s2-.8 4.4-.8c2.5 0 4.2.4 4 .8zm19 0c-.3.5-.9.6-1.4.3-.5-.3-1.2-.1-1.5.5-.5.8-1.2.7-2.3-.2-1.3-1.1-1.5-1-.9.4.8 2.3 0 2.3-1.2 0-.8-1.6-.4-1.8 3.4-1.8 2.4 0 4.1.4 3.9.8zm96 0c-.3.5-.9.6-1.4.3-.5-.3-1.2-.1-1.5.5-.5.8-1.2.7-2.3-.2-1.3-1.1-1.5-1-.9.4.8 2.3 0 2.3-1.2 0-.8-1.6-.4-1.8 3.4-1.8 2.4 0 4.1.4 3.9.8zm4.9 35c.6 2.2.6 2.2 2.8.2 1.3-1.1 1.9-1.3 1.3-.4-.5.8-.9 1.9-.9 2.5 0 1.4-149.9 1.4-150.3 0-.2-.6-.9-1.6-1.5-2.4-.9-1.1-.9-1.3 0-.8.6.4 1.4.3 1.8-.3.4-.7 25.2-1 73.4-1h72.9l.5 2.2zm33.5 41l-.3 2.3-36.7.3c-36.6.2-36.8.2-36.8-1.8 0-1.4-.4-1.9-1.2-1.4-.7.4-.8.3-.4-.4.5-.8 11.9-1.1 38.2-1.2h37.5l-.3 2.2zm-2.8 43.5c0 1.5-.2 1.6-1 .3-.7-1.2-.9-1-.8.6.1 1.3.8 2.1 1.8 1.9.8-.1 1.4-1.1 1.3-2.1-.2-1.1 0-1.4.4-.5.3.9.8 1 1.2.3.4-.7 1.2-.3 2 1.1 1.3 2.1 1.3 2.1-.4.7-1.7-1.4-1.8-1.3-1.2.2.5 1.5-2.4 1.6-37.5 1.8-40.2.1-42.8-.2-39.2-4.1 1.6-1.8 3.9-1.9 37.6-1.9 33.4 0 35.8.1 35.8 1.7zm3.5 43.3c.4.6 1 .8 1.5.5.5-.3 1.2-.1 1.5.5.4.6.1.9-.7.8-.7-.2-1.2.3-1 1 .1.8-.2 1.1-.8.7-.5-.3-1-.1-1 .4 0 .8-12.1 1.1-38.7 1.1-24 0-38.2-.4-37.3-.9.8-.6 1.7-.8 2.1-.5 1 .5.5-2.3-.5-3.3-.4-.4-.6-.2-.4.6.2.7-.4 1.5-1.3 1.6-.9.2-1.6-.3-1.6-1.1 0-.7.4-1.1.8-.8.4.2 1 0 1.4-.6.4-.6 13.8-1 38-1s37.6.4 38 1zm-.5 46c0 .6.4.9.9.5.5-.3 1.2-.1 1.5.4.7 1-1.3.9-3-.1-.6-.4-1 .2-1 1.5l.1 2.2-35.9.3c-24.1.1-36.3-.1-37.1-.8-1.1-.9-1.3-2.8-.6-4.7.1-.1 17-.2 37.6-.3 26.2 0 37.5.3 37.5 1zm-77.3 1.5c0 .8-.4 1.2-.9.9-.5-.3-.6-1-.3-1.5.9-1.3 1.2-1.1 1.2.6zm-10.6 131.2l3.9 2.8v16.2l-4 2.7c-3.8 2.5-4.5 2.6-18 2.6s-14.2-.1-18-2.6l-4-2.7v-8.1l.1-8.1 3.7-2.7c3.6-2.7 4.1-2.7 18-2.8 14.1 0 14.5.1 18.3 2.7zM219 476.1c0 .5.6.7 1.3.3 1-.6 1-.4 0 .7-1.6 1.6-1.7 3.3-.1 2.3.7-.4.8-.3.4.4-.5.9-9.4 1.2-31.9 1.2-20.5 0-30.7-.4-29.7-1 1.3-.8 1.3-1 .1-1-1.1 0-1-.4.5-1.6 1-.8 1.3-1.2.5-.8-.9.5-1.2.3-.7-.4 1-1.6 59.6-1.7 59.6-.1zm126.1.6c1.1 1.3 1.1 1.5.1.9-.9-.6-1.2-.3-1 1 .3 1.8-.8 1.9-16.5 2.2-16.2.2-16.9.2-17.4-1.8-.3-1.1-.9-1.8-1.3-1.5-.5.3-1.2 0-1.6-.6-.4-.8-.3-.9.4-.5s1.2.3 1.2-.3 6.8-1 17.4-1.1c15.3-.1 17.5.1 18.7 1.7z"/><path d="M255 19.5c.8 1.1 1.5 2.1 1.6 2.3.1.2.5-.5.8-1.5.4-.9.4-1.4 0-1-.4.4-1.4.1-2.3-.6-1.4-1.1-1.5-1-.1.8zM165.1 20.6c0 1.1.3 1.4.6.6.3-.7.2-1.6-.1-1.9-.3-.4-.6.2-.5 1.3zM181.1 20.6c0 1.1.3 1.4.6.6.3-.7.2-1.6-.1-1.9-.3-.4-.6.2-.5 1.3zM240.1 20.6c0 1.1.3 1.4.6.6.3-.7.2-1.6-.1-1.9-.3-.4-.6.2-.5 1.3zM242.6 20.2c.3.5 1 .6 1.5.3 1.3-.9 1.1-1.2-.6-1.2-.8 0-1.2.4-.9.9zM277.1 20.6c0 1.1.3 1.4.6.6.3-.7.2-1.6-.1-1.9-.3-.4-.6.2-.5 1.3zM336.1 20.6c0 1.1.3 1.4.6.6.3-.7.2-1.6-.1-1.9-.3-.4-.6.2-.5 1.3zM355.1 20.6c0 1.1.3 1.4.6.6.3-.7.2-1.6-.1-1.9-.3-.4-.6.2-.5 1.3zM357.4 19.8c.4.3 1.4.7 2.2.8.9.1 1.3 0 1-.4-.4-.3-1.4-.7-2.2-.8-.9-.1-1.3 0-1 .4zM181.9 55.4c0 .1-.2.9-.4 1.9-.3 1.4 0 1.6.9.8.7-.6 1.5-.9 1.8-.6.2.3.5-.1.5-.8 0-1-2.1-2-2.8-1.3zM325.3 56.8c-.9 1.5-.7 1.8 1.3 1.8 1.9 0 2.1-.3 1.1-1.6-.6-.8-1.2-1.6-1.2-1.7 0-.1-.6.6-1.2 1.5zM357.5 96.9c-.3.5-.2 1.2.3 1.5.5.3.9-.1.9-.9 0-1.7-.3-1.9-1.2-.6zM360.1 97.6c0 1.1.3 1.4.6.6.3-.7.2-1.6-.1-1.9-.3-.4-.6.2-.5 1.3zM286 141.5c-.7.8-1.1 1.5-.9 1.6 3.1.6 3.7.5 3.5-.7-.3-2.2-1.2-2.5-2.6-.9zM359.9 185.4c.6.7.7 1.7.3 2.2-.4.4.1.2 1.1-.5 1.9-1.5 1.6-2.4-.9-2.7-1.1-.2-1.2.1-.5 1zM287.5 231.9c.2.9.4 1.8.4 2 .1.2.8-.2 1.6-.9 1.6-1.4 1.3-2.3-.9-2.6-.8-.1-1.3.5-1.1 1.5zM356.9 231.7c-1.3 1.6-1.2 1.7.4.4 1.6-1.3 2.1-2.1 1.3-2.1-.2 0-1 .8-1.7 1.7zM242 373.5v7.5h7.5c6.4 0 7.7-.3 9.5-2.3l2.1-2.2-6.5-.3-6.6-.3V371c0-4.9-.1-5-3-5h-3v7.5zM256 368c0 1.6.7 2 3.5 2s3.5-.4 3.5-2-.7-2-3.5-2-3.5.4-3.5 2zM264 372.1c0 .5.5.7 1 .4.6-.3 1-.8 1-1.1 0-.2-.4-.4-1-.4-.5 0-1 .5-1 1.1zM310.7 478.1c.4 1.3.8 1.8 1.1 1 .2-.7-.1-1.8-.6-2.3-.8-.8-.9-.4-.5 1.3z"/></svg>