<?xml version="1.0" standalone="no"?>
<!DOCTYPE svg PUBLIC "-//W3C//DTD SVG 20010904//EN"
 "http://www.w3.org/TR/2001/REC-SVG-20010904/DTD/svg10.dtd">
<svg version="1.0" xmlns="http://www.w3.org/2000/svg"
 width="512.000000pt" height="512.000000pt" viewBox="0 0 512.000000 512.000000"
 preserveAspectRatio="xMidYMid meet">
<metadata>
Created by potrace 1.14, written by Peter Selinger 2001-2017
</metadata>
<g transform="translate(0.000000,512.000000) scale(0.100000,-0.100000)"
fill="#000000" stroke="none">
<path d="M1668 5029 c-48 -13 -86 -42 -109 -83 -21 -37 -24 -55 -25 -181 -1
-77 -3 -143 -3 -147 -1 -5 -294 -8 -651 -8 -716 0 -696 2 -752 -62 -15 -16
-32 -44 -36 -62 -5 -17 -8 -659 -7 -1426 1 -1270 3 -1398 18 -1426 20 -39 70
-82 105 -91 15 -4 166 -7 337 -7 l310 0 -1 -548 c0 -301 -3 -550 -6 -554 -4
-3 -50 -7 -102 -8 -85 -2 -99 -5 -121 -26 -14 -13 -25 -32 -25 -42 0 -17 -15
-18 -269 -18 l-269 0 -32 -26 c-27 -23 -31 -32 -26 -63 3 -22 14 -44 31 -58
26 -23 30 -23 294 -23 l269 0 6 -25 c4 -14 18 -32 32 -42 23 -15 59 -17 297
-17 297 -1 321 3 339 56 l10 28 467 0 466 0 14 -31 c22 -51 43 -54 339 -53
237 0 273 2 296 17 14 10 28 28 32 42 l6 25 468 0 468 0 10 -29 c19 -53 40
-57 338 -56 239 1 274 3 297 18 15 9 29 28 33 42 l6 24 274 3 c261 3 274 4
294 24 38 38 34 98 -9 131 -12 9 -90 12 -288 13 -258 0 -273 1 -273 18 0 10
-12 29 -26 43 -23 22 -34 24 -125 24 -59 0 -99 4 -100 10 -4 41 -3 1095 1
1096 3 1 145 2 315 4 324 2 347 5 393 48 59 55 55 -44 57 1472 1 765 -2 1405
-6 1424 -11 49 -39 83 -89 109 l-44 22 -653 0 c-359 0 -653 3 -654 8 0 4 -2
72 -3 152 -2 133 -4 148 -26 181 -13 19 -40 46 -59 60 l-36 24 -885 1 c-487 0
-897 -3 -912 -7z m-132 -3634 c0 -147 5 -173 36 -218 44 -62 44 -62 493 -67
l410 -5 0 -338 c0 -293 -2 -337 -15 -338 -8 0 -55 -2 -103 -3 -84 -1 -90 -3
-113 -29 -13 -16 -24 -35 -24 -43 0 -12 -67 -14 -469 -14 l-469 0 -10 29 c-15
43 -46 55 -142 57 -47 1 -90 3 -95 3 -7 1 -10 182 -9 554 1 303 2 552 3 552 0
0 115 0 254 0 l252 0 1 -140z m2559 -412 c1 -491 -1 -553 -15 -554 -8 0 -55
-1 -104 -3 -85 -3 -90 -4 -113 -32 -12 -16 -23 -35 -23 -41 0 -10 -101 -13
-470 -13 -403 0 -470 2 -470 14 0 8 -11 27 -24 43 -23 26 -29 28 -117 29 -52
2 -98 3 -104 3 -6 1 -10 121 -10 338 l1 338 409 5 c450 5 449 5 494 68 29 41
34 71 36 221 2 75 3 136 4 136 0 0 115 0 253 0 l253 0 0 -552z"/>
</g>
</svg>
