<?xml version="1.0" encoding="UTF-8" standalone="no"?>
<!DOCTYPE svg PUBLIC "-//W3C//DTD SVG 1.1//EN"
 "http://www.w3.org/Graphics/SVG/1.1/DTD/svg11.dtd">
<!-- Generated by graphviz version 2.38.0 (20140413.2041)
 -->
<!-- Title: G Pages: 1 -->
<svg width="754pt" height="1428pt"
 viewBox="0.00 0.00 753.86 1428.00" xmlns="http://www.w3.org/2000/svg" xmlns:xlink="http://www.w3.org/1999/xlink">
<g id="graph0" class="graph" transform="scale(1 1) rotate(0) translate(4 1424)">
<title>G</title>
<polygon fill="white" stroke="none" points="-4,4 -4,-1424 749.864,-1424 749.864,4 -4,4"/>
<g id="clust1" class="cluster"><title>cluster_Global</title>
<path fill="none" stroke="gray" d="M322.723,-98C322.723,-98 725.864,-98 725.864,-98 731.864,-98 737.864,-104 737.864,-110 737.864,-110 737.864,-1400 737.864,-1400 737.864,-1406 731.864,-1412 725.864,-1412 725.864,-1412 322.723,-1412 322.723,-1412 316.723,-1412 310.723,-1406 310.723,-1400 310.723,-1400 310.723,-110 310.723,-110 310.723,-104 316.723,-98 322.723,-98"/>
<text text-anchor="middle" x="524.294" y="-1399.2" font-family="Times,serif" font-size="11.00" fill="gray">Global</text>
</g>
<!-- \\LoginForm -->
<g id="node1" class="node"><title>\\LoginForm</title>
<polygon fill="none" stroke="black" points="678.864,-412 601.864,-412 601.864,-376 678.864,-376 678.864,-412"/>
<text text-anchor="middle" x="640.364" y="-391.2" font-family="Courier,monospace" font-size="11.00">LoginForm</text>
</g>
<!-- \\Phalcon\\Forms\\Form -->
<g id="node27" class="node"><title>\\Phalcon\\Forms\\Form</title>
<ellipse fill="none" stroke="black" cx="374.223" cy="-72" rx="89.0842" ry="18"/>
<text text-anchor="middle" x="374.223" y="-68.3" font-family="Times,serif" font-size="14.00" fill="gray">\Phalcon\Forms\Form</text>
</g>
<!-- \\LoginForm&#45;&gt;\\Phalcon\\Forms\\Form -->
<g id="edge1" class="edge"><title>\\LoginForm&#45;&gt;\\Phalcon\\Forms\\Form</title>
<path fill="none" stroke="black" d="M601.844,-390.912C584.175,-387.576 564.12,-380.773 550.864,-367 463.848,-276.59 569.727,-180.543 478.864,-94 474.702,-90.0356 470.011,-86.7113 464.983,-83.9298"/>
<polygon fill="none" stroke="black" points="466.146,-80.6077 455.611,-79.4884 463.149,-86.9335 466.146,-80.6077"/>
</g>
<!-- \\SettingsGeneralForm -->
<g id="node2" class="node"><title>\\SettingsGeneralForm</title>
<polygon fill="none" stroke="black" points="712.864,-358 567.864,-358 567.864,-322 712.864,-322 712.864,-358"/>
<text text-anchor="middle" x="640.364" y="-337.2" font-family="Courier,monospace" font-size="11.00">SettingsGeneralForm</text>
</g>
<!-- \\SettingsGeneralForm&#45;&gt;\\Phalcon\\Forms\\Form -->
<g id="edge2" class="edge"><title>\\SettingsGeneralForm&#45;&gt;\\Phalcon\\Forms\\Form</title>
<path fill="none" stroke="black" d="M567.768,-325.063C561.576,-321.802 555.8,-317.831 550.864,-313 477.639,-241.335 555.134,-162.415 478.864,-94 474.434,-90.0264 469.469,-86.7059 464.174,-83.9366"/>
<polygon fill="none" stroke="black" points="465.542,-80.7141 454.989,-79.7789 462.656,-87.0912 465.542,-80.7141"/>
</g>
<!-- \\SettingsUsersForm -->
<g id="node3" class="node"><title>\\SettingsUsersForm</title>
<polygon fill="none" stroke="black" points="705.864,-1276 574.864,-1276 574.864,-1240 705.864,-1240 705.864,-1276"/>
<text text-anchor="middle" x="640.364" y="-1255.2" font-family="Courier,monospace" font-size="11.00">SettingsUsersForm</text>
</g>
<!-- \\SettingsDevicesNewForm -->
<g id="node4" class="node"><title>\\SettingsDevicesNewForm</title>
<polygon fill="none" stroke="black" points="722.864,-304 557.864,-304 557.864,-268 722.864,-268 722.864,-304"/>
<text text-anchor="middle" x="640.364" y="-283.2" font-family="Courier,monospace" font-size="11.00">SettingsDevicesNewForm</text>
</g>
<!-- \\SettingsDevicesNewForm&#45;&gt;\\Phalcon\\Forms\\Form -->
<g id="edge3" class="edge"><title>\\SettingsDevicesNewForm&#45;&gt;\\Phalcon\\Forms\\Form</title>
<path fill="none" stroke="black" d="M563.06,-267.768C558.698,-265.219 554.582,-262.312 550.864,-259 491.121,-205.779 540.864,-144.575 478.864,-94 474.161,-90.1641 468.95,-86.9514 463.438,-84.2652"/>
<polygon fill="none" stroke="black" points="464.489,-80.909 453.916,-80.2243 461.754,-87.3528 464.489,-80.909"/>
</g>
<!-- \\SettingsDashboardForm -->
<g id="node5" class="node"><title>\\SettingsDashboardForm</title>
<polygon fill="none" stroke="black" points="719.364,-250 561.364,-250 561.364,-214 719.364,-214 719.364,-250"/>
<text text-anchor="middle" x="640.364" y="-229.2" font-family="Courier,monospace" font-size="11.00">SettingsDashboardForm</text>
</g>
<!-- \\SettingsDashboardForm&#45;&gt;\\Phalcon\\Forms\\Form -->
<g id="edge4" class="edge"><title>\\SettingsDashboardForm&#45;&gt;\\Phalcon\\Forms\\Form</title>
<path fill="none" stroke="black" d="M565.413,-213.941C560.271,-211.346 555.354,-208.383 550.864,-205 503.901,-169.613 527.321,-127.313 478.864,-94 473.492,-90.3072 467.622,-87.2153 461.494,-84.6285"/>
<polygon fill="none" stroke="black" points="462.279,-81.1856 451.686,-80.9657 459.83,-87.7432 462.279,-81.1856"/>
</g>
<!-- \\SettingsMenuItemsForm -->
<g id="node6" class="node"><title>\\SettingsMenuItemsForm</title>
<polygon fill="none" stroke="black" points="719.364,-196 561.364,-196 561.364,-160 719.364,-160 719.364,-196"/>
<text text-anchor="middle" x="640.364" y="-175.2" font-family="Courier,monospace" font-size="11.00">SettingsMenuItemsForm</text>
</g>
<!-- \\SettingsMenuItemsForm&#45;&gt;\\Phalcon\\Forms\\Form -->
<g id="edge5" class="edge"><title>\\SettingsMenuItemsForm&#45;&gt;\\Phalcon\\Forms\\Form</title>
<path fill="none" stroke="black" d="M570.687,-159.871C563.846,-157.233 557.124,-154.282 550.864,-151 514.717,-132.049 515.801,-111.362 478.864,-94 471.783,-90.6714 464.193,-87.8415 456.459,-85.4366"/>
<polygon fill="none" stroke="black" points="457.191,-82.0055 446.614,-82.612 455.261,-88.7341 457.191,-82.0055"/>
</g>
<!-- \\SettingsMenuItemsNewForm -->
<g id="node7" class="node"><title>\\SettingsMenuItemsNewForm</title>
<polygon fill="none" stroke="black" points="729.864,-520 550.864,-520 550.864,-484 729.864,-484 729.864,-520"/>
<text text-anchor="middle" x="640.364" y="-499.2" font-family="Courier,monospace" font-size="11.00">SettingsMenuItemsNewForm</text>
</g>
<!-- \\SettingsMenuItemsNewForm&#45;&gt;\\Phalcon\\Forms\\Form -->
<g id="edge6" class="edge"><title>\\SettingsMenuItemsNewForm&#45;&gt;\\Phalcon\\Forms\\Form</title>
<path fill="none" stroke="black" d="M560.952,-483.869C557.27,-481.289 553.866,-478.349 550.864,-475 435.849,-346.667 599.348,-217.213 478.864,-94 474.885,-89.9313 470.355,-86.5247 465.464,-83.6796"/>
<polygon fill="none" stroke="black" points="466.826,-80.4484 456.312,-79.143 463.717,-86.7202 466.826,-80.4484"/>
</g>
<!-- \\SettingsDevicesForm -->
<g id="node8" class="node"><title>\\SettingsDevicesForm</title>
<polygon fill="none" stroke="black" points="712.864,-466 567.864,-466 567.864,-430 712.864,-430 712.864,-466"/>
<text text-anchor="middle" x="640.364" y="-445.2" font-family="Courier,monospace" font-size="11.00">SettingsDevicesForm</text>
</g>
<!-- \\SettingsDevicesForm&#45;&gt;\\Phalcon\\Forms\\Form -->
<g id="edge7" class="edge"><title>\\SettingsDevicesForm&#45;&gt;\\Phalcon\\Forms\\Form</title>
<path fill="none" stroke="black" d="M567.675,-433.801C561.421,-430.397 555.659,-426.192 550.864,-421 449.895,-311.679 584.489,-198.829 478.864,-94 474.784,-89.9508 470.156,-86.5624 465.174,-83.7337"/>
<polygon fill="none" stroke="black" points="466.392,-80.4349 455.867,-79.2249 463.34,-86.7346 466.392,-80.4349"/>
</g>
<!-- \\SecurityPlugin -->
<g id="node9" class="node"><title>\\SecurityPlugin</title>
<polygon fill="none" stroke="black" points="695.864,-142 584.864,-142 584.864,-106 695.864,-106 695.864,-142"/>
<text text-anchor="middle" x="640.364" y="-121.2" font-family="Courier,monospace" font-size="11.00">SecurityPlugin</text>
</g>
<!-- \\Phalcon\\Mvc\\User\\Plugin -->
<g id="node28" class="node"><title>\\Phalcon\\Mvc\\User\\Plugin</title>
<ellipse fill="none" stroke="black" cx="374.223" cy="-18" rx="104.782" ry="18"/>
<text text-anchor="middle" x="374.223" y="-14.3" font-family="Times,serif" font-size="14.00" fill="gray">\Phalcon\Mvc\User\Plugin</text>
</g>
<!-- \\SecurityPlugin&#45;&gt;\\Phalcon\\Mvc\\User\\Plugin -->
<g id="edge8" class="edge"><title>\\SecurityPlugin&#45;&gt;\\Phalcon\\Mvc\\User\\Plugin</title>
<path fill="none" stroke="black" d="M607.632,-105.984C575.851,-88.5216 525.146,-62.2163 478.864,-45 469.091,-41.3647 458.627,-38.0264 448.243,-35.0295"/>
<polygon fill="none" stroke="black" points="448.909,-31.5819 438.336,-32.2623 447.026,-38.3238 448.909,-31.5819"/>
</g>
<!-- \\RssController -->
<g id="node10" class="node"><title>\\RssController</title>
<polygon fill="none" stroke="black" points="692.364,-1168 588.364,-1168 588.364,-1132 692.364,-1132 692.364,-1168"/>
<text text-anchor="middle" x="640.364" y="-1147.2" font-family="Courier,monospace" font-size="11.00">RssController</text>
</g>
<!-- \\BaseController -->
<g id="node13" class="node"><title>\\BaseController</title>
<polygon fill="none" stroke="black" points="429.723,-1168 318.723,-1168 318.723,-1132 429.723,-1132 429.723,-1168"/>
<text text-anchor="middle" x="374.223" y="-1147.2" font-family="Courier,monospace" font-size="11.00">BaseController</text>
</g>
<!-- \\RssController&#45;&gt;\\BaseController -->
<g id="edge9" class="edge"><title>\\RssController&#45;&gt;\\BaseController</title>
<path fill="none" stroke="black" d="M588.122,-1150C545.86,-1150 485.656,-1150 440.047,-1150"/>
<polygon fill="none" stroke="black" points="439.963,-1146.5 429.963,-1150 439.963,-1153.5 439.963,-1146.5"/>
</g>
<!-- \\DevicesController -->
<g id="node11" class="node"><title>\\DevicesController</title>
<polygon fill="none" stroke="black" points="705.864,-1114 574.864,-1114 574.864,-1078 705.864,-1078 705.864,-1114"/>
<text text-anchor="middle" x="640.364" y="-1093.2" font-family="Courier,monospace" font-size="11.00">DevicesController</text>
</g>
<!-- \\DevicesController&#45;&gt;\\BaseController -->
<g id="edge10" class="edge"><title>\\DevicesController&#45;&gt;\\BaseController</title>
<path fill="none" stroke="black" d="M574.748,-1109.21C533.688,-1117.6 480.739,-1128.43 439.705,-1136.82"/>
<polygon fill="none" stroke="black" points="438.908,-1133.41 429.812,-1138.84 440.31,-1140.27 438.908,-1133.41"/>
</g>
<!-- \\SessionController -->
<g id="node12" class="node"><title>\\SessionController</title>
<polygon fill="none" stroke="black" points="705.864,-1060 574.864,-1060 574.864,-1024 705.864,-1024 705.864,-1060"/>
<text text-anchor="middle" x="640.364" y="-1039.2" font-family="Courier,monospace" font-size="11.00">SessionController</text>
</g>
<!-- \\SessionController&#45;&gt;\\BaseController -->
<g id="edge11" class="edge"><title>\\SessionController&#45;&gt;\\BaseController</title>
<path fill="none" stroke="black" d="M576.156,-1060.13C567.594,-1062.92 558.97,-1065.91 550.864,-1069 505.209,-1086.4 454.714,-1110.19 419.629,-1127.48"/>
<polygon fill="none" stroke="black" points="418.012,-1124.37 410.606,-1131.95 421.12,-1130.65 418.012,-1124.37"/>
</g>
<!-- \\Phalcon\\Mvc\\Controller -->
<g id="node29" class="node"><title>\\Phalcon\\Mvc\\Controller</title>
<ellipse fill="none" stroke="black" cx="98.7912" cy="-1150" rx="98.5829" ry="18"/>
<text text-anchor="middle" x="98.7912" y="-1146.3" font-family="Times,serif" font-size="14.00" fill="gray">\Phalcon\Mvc\Controller</text>
</g>
<!-- \\BaseController&#45;&gt;\\Phalcon\\Mvc\\Controller -->
<g id="edge12" class="edge"><title>\\BaseController&#45;&gt;\\Phalcon\\Mvc\\Controller</title>
<path fill="none" stroke="black" d="M318.547,-1150C286.859,-1150 245.839,-1150 207.896,-1150"/>
<polygon fill="none" stroke="black" points="207.807,-1146.5 197.807,-1150 207.807,-1153.5 207.807,-1146.5"/>
</g>
<!-- \\AboutController -->
<g id="node14" class="node"><title>\\AboutController</title>
<polygon fill="none" stroke="black" points="699.364,-1006 581.364,-1006 581.364,-970 699.364,-970 699.364,-1006"/>
<text text-anchor="middle" x="640.364" y="-985.2" font-family="Courier,monospace" font-size="11.00">AboutController</text>
</g>
<!-- \\AboutController&#45;&gt;\\BaseController -->
<g id="edge13" class="edge"><title>\\AboutController&#45;&gt;\\BaseController</title>
<path fill="none" stroke="black" d="M581.053,-1002.52C570.736,-1006 560.289,-1010.14 550.864,-1015 492.624,-1045 434.123,-1094.85 401.495,-1124.85"/>
<polygon fill="none" stroke="black" points="399.106,-1122.29 394.16,-1131.66 403.869,-1127.42 399.106,-1122.29"/>
</g>
<!-- \\KodiController -->
<g id="node15" class="node"><title>\\KodiController</title>
<polygon fill="none" stroke="black" points="695.864,-1384 584.864,-1384 584.864,-1348 695.864,-1348 695.864,-1384"/>
<text text-anchor="middle" x="640.364" y="-1363.2" font-family="Courier,monospace" font-size="11.00">KodiController</text>
</g>
<!-- \\KodiController&#45;&gt;\\BaseController -->
<g id="edge14" class="edge"><title>\\KodiController&#45;&gt;\\BaseController</title>
<path fill="none" stroke="black" d="M584.518,-1354.18C572.902,-1350.35 561.077,-1345.39 550.864,-1339 481.169,-1295.4 421.13,-1217.17 392.724,-1176.38"/>
<polygon fill="none" stroke="black" points="395.537,-1174.29 386.99,-1168.03 389.767,-1178.26 395.537,-1174.29"/>
</g>
<!-- \\IndexController -->
<g id="node16" class="node"><title>\\IndexController</title>
<polygon fill="none" stroke="black" points="699.364,-1330 581.364,-1330 581.364,-1294 699.364,-1294 699.364,-1330"/>
<text text-anchor="middle" x="640.364" y="-1309.2" font-family="Courier,monospace" font-size="11.00">IndexController</text>
</g>
<!-- \\IndexController&#45;&gt;\\BaseController -->
<g id="edge15" class="edge"><title>\\IndexController&#45;&gt;\\BaseController</title>
<path fill="none" stroke="black" d="M581.053,-1297.48C570.736,-1294 560.289,-1289.86 550.864,-1285 492.624,-1255 434.123,-1205.15 401.495,-1175.15"/>
<polygon fill="none" stroke="black" points="403.869,-1172.58 394.16,-1168.34 399.106,-1177.71 403.869,-1172.58"/>
</g>
<!-- \\SettingsController -->
<g id="node17" class="node"><title>\\SettingsController</title>
<polygon fill="none" stroke="black" points="709.364,-1222 571.364,-1222 571.364,-1186 709.364,-1186 709.364,-1222"/>
<text text-anchor="middle" x="640.364" y="-1201.2" font-family="Courier,monospace" font-size="11.00">SettingsController</text>
</g>
<!-- \\SettingsController&#45;&gt;\\BaseController -->
<g id="edge16" class="edge"><title>\\SettingsController&#45;&gt;\\BaseController</title>
<path fill="none" stroke="black" d="M571.341,-1190.09C530.898,-1181.83 479.883,-1171.4 440.022,-1163.25"/>
<polygon fill="none" stroke="black" points="440.64,-1159.8 430.141,-1161.23 439.238,-1166.66 440.64,-1159.8"/>
</g>
<!-- \\KodiMovies -->
<g id="node18" class="node"><title>\\KodiMovies</title>
<polygon fill="none" stroke="black" points="682.364,-952 598.364,-952 598.364,-916 682.364,-916 682.364,-952"/>
<text text-anchor="middle" x="640.364" y="-931.2" font-family="Courier,monospace" font-size="11.00">KodiMovies</text>
</g>
<!-- \\BaseModel -->
<g id="node21" class="node"><title>\\BaseModel</title>
<polygon fill="none" stroke="black" points="412.723,-763 335.723,-763 335.723,-727 412.723,-727 412.723,-763"/>
<text text-anchor="middle" x="374.223" y="-742.2" font-family="Courier,monospace" font-size="11.00">BaseModel</text>
</g>
<!-- \\KodiMovies&#45;&gt;\\BaseModel -->
<g id="edge17" class="edge"><title>\\KodiMovies&#45;&gt;\\BaseModel</title>
<path fill="none" stroke="black" d="M598.143,-925.536C582.681,-921.323 565.357,-915.309 550.864,-907 487.062,-870.421 427.393,-806.812 396.731,-771.154"/>
<polygon fill="none" stroke="black" points="399.071,-768.501 389.929,-763.145 393.735,-773.032 399.071,-768.501"/>
</g>
<!-- \\KodiTVShowEpisodes -->
<g id="node19" class="node"><title>\\KodiTVShowEpisodes</title>
<polygon fill="none" stroke="black" points="709.364,-898 571.364,-898 571.364,-862 709.364,-862 709.364,-898"/>
<text text-anchor="middle" x="640.364" y="-877.2" font-family="Courier,monospace" font-size="11.00">KodiTVShowEpisodes</text>
</g>
<!-- \\KodiTVShowEpisodes&#45;&gt;\\BaseModel -->
<g id="edge18" class="edge"><title>\\KodiTVShowEpisodes&#45;&gt;\\BaseModel</title>
<path fill="none" stroke="black" d="M573.424,-861.937C565.71,-859.223 558.039,-856.236 550.864,-853 498.371,-829.324 442.495,-792.758 408.215,-768.85"/>
<polygon fill="none" stroke="black" points="410.173,-765.949 399.98,-763.06 406.147,-771.675 410.173,-765.949"/>
</g>
<!-- \\KodiMusic -->
<g id="node20" class="node"><title>\\KodiMusic</title>
<polygon fill="none" stroke="black" points="678.864,-844 601.864,-844 601.864,-808 678.864,-808 678.864,-844"/>
<text text-anchor="middle" x="640.364" y="-823.2" font-family="Courier,monospace" font-size="11.00">KodiMusic</text>
</g>
<!-- \\KodiMusic&#45;&gt;\\BaseModel -->
<g id="edge19" class="edge"><title>\\KodiMusic&#45;&gt;\\BaseModel</title>
<path fill="none" stroke="black" d="M601.46,-814.456C585.795,-809.68 567.452,-804.08 550.864,-799 507.368,-785.679 457.834,-770.444 422.482,-759.56"/>
<polygon fill="none" stroke="black" points="423.492,-756.209 412.904,-756.611 421.432,-762.899 423.492,-756.209"/>
</g>
<!-- \\Phalcon\\Mvc\\Model -->
<g id="node30" class="node"><title>\\Phalcon\\Mvc\\Model</title>
<ellipse fill="none" stroke="black" cx="98.7912" cy="-745" rx="86.3847" ry="18"/>
<text text-anchor="middle" x="98.7912" y="-741.3" font-family="Times,serif" font-size="14.00" fill="gray">\Phalcon\Mvc\Model</text>
</g>
<!-- \\BaseModel&#45;&gt;\\Phalcon\\Mvc\\Model -->
<g id="edge20" class="edge"><title>\\BaseModel&#45;&gt;\\Phalcon\\Mvc\\Model</title>
<path fill="none" stroke="black" d="M335.491,-745C299.519,-745 243.843,-745 195.634,-745"/>
<polygon fill="none" stroke="black" points="195.47,-741.5 185.47,-745 195.469,-748.5 195.47,-741.5"/>
</g>
<!-- \\Devices -->
<g id="node22" class="node"><title>\\Devices</title>
<polygon fill="none" stroke="black" points="672.364,-790 608.364,-790 608.364,-754 672.364,-754 672.364,-790"/>
<text text-anchor="middle" x="640.364" y="-769.2" font-family="Courier,monospace" font-size="11.00">Devices</text>
</g>
<!-- \\Devices&#45;&gt;\\BaseModel -->
<g id="edge21" class="edge"><title>\\Devices&#45;&gt;\\BaseModel</title>
<path fill="none" stroke="black" d="M608.287,-768.823C562.549,-764.148 476.727,-755.376 422.961,-749.88"/>
<polygon fill="none" stroke="black" points="423.288,-746.395 412.984,-748.86 422.576,-753.359 423.288,-746.395"/>
</g>
<!-- \\Menus -->
<g id="node23" class="node"><title>\\Menus</title>
<polygon fill="none" stroke="black" points="667.364,-736 613.364,-736 613.364,-700 667.364,-700 667.364,-736"/>
<text text-anchor="middle" x="640.364" y="-715.2" font-family="Courier,monospace" font-size="11.00">Menus</text>
</g>
<!-- \\Menus&#45;&gt;\\BaseModel -->
<g id="edge22" class="edge"><title>\\Menus&#45;&gt;\\BaseModel</title>
<path fill="none" stroke="black" d="M613.071,-720.688C568.724,-725.221 478.457,-734.448 422.769,-740.14"/>
<polygon fill="none" stroke="black" points="422.384,-736.661 412.792,-741.16 423.096,-743.625 422.384,-736.661"/>
</g>
<!-- \\PHPSysInfo -->
<g id="node24" class="node"><title>\\PHPSysInfo</title>
<polygon fill="none" stroke="black" points="682.364,-682 598.364,-682 598.364,-646 682.364,-646 682.364,-682"/>
<text text-anchor="middle" x="640.364" y="-661.2" font-family="Courier,monospace" font-size="11.00">PHPSysInfo</text>
</g>
<!-- \\PHPSysInfo&#45;&gt;\\BaseModel -->
<g id="edge23" class="edge"><title>\\PHPSysInfo&#45;&gt;\\BaseModel</title>
<path fill="none" stroke="black" d="M597.937,-676.619C583.087,-681.147 566.223,-686.296 550.864,-691 507.368,-704.321 457.834,-719.556 422.482,-730.44"/>
<polygon fill="none" stroke="black" points="421.432,-727.101 412.904,-733.389 423.492,-733.791 421.432,-727.101"/>
</g>
<!-- \\MenuItems -->
<g id="node25" class="node"><title>\\MenuItems</title>
<polygon fill="none" stroke="black" points="678.864,-628 601.864,-628 601.864,-592 678.864,-592 678.864,-628"/>
<text text-anchor="middle" x="640.364" y="-607.2" font-family="Courier,monospace" font-size="11.00">MenuItems</text>
</g>
<!-- \\MenuItems&#45;&gt;\\BaseModel -->
<g id="edge24" class="edge"><title>\\MenuItems&#45;&gt;\\BaseModel</title>
<path fill="none" stroke="black" d="M601.559,-619.24C585.576,-623.728 566.971,-629.735 550.864,-637 498.371,-660.676 442.495,-697.242 408.215,-721.15"/>
<polygon fill="none" stroke="black" points="406.147,-718.325 399.98,-726.94 410.173,-724.051 406.147,-718.325"/>
</g>
<!-- \\Users -->
<g id="node26" class="node"><title>\\Users</title>
<polygon fill="none" stroke="black" points="667.364,-574 613.364,-574 613.364,-538 667.364,-538 667.364,-574"/>
<text text-anchor="middle" x="640.364" y="-553.2" font-family="Courier,monospace" font-size="11.00">Users</text>
</g>
<!-- \\Users&#45;&gt;\\BaseModel -->
<g id="edge25" class="edge"><title>\\Users&#45;&gt;\\BaseModel</title>
<path fill="none" stroke="black" d="M613.336,-560.717C595.013,-564.788 570.374,-571.814 550.864,-583 487.062,-619.579 427.393,-683.188 396.731,-718.846"/>
<polygon fill="none" stroke="black" points="393.735,-716.968 389.929,-726.855 399.071,-721.499 393.735,-716.968"/>
</g>
</g>
</svg>
