<!-- Generated by IcoMoon.io -->
<svg version="1.1" xmlns="http://www.w3.org/2000/svg" width="992" height="1024" viewBox="0 0 992 1024">
<title></title>
<g id="icomoon-ignore">
</g>
<path d="M263 434.996l-152.801-234.8c95.201-118.398 238-183.6 384-184.199 84.602-0.6 171 21 249.602 66.4 86.799 50.4 152.799 122.799 194.799 206l-410.6-21.6c-116.199-6.801-226.8 58.6-265 168.199zM328.8 511.996c0-92.6 74.799-167.199 167.199-167.199s167.199 74.799 167.199 167.199-74.799 167.199-167.199 167.199-167.199-74.799-167.199-167.199zM958.6 333.596c87 223.8 0 483.8-214.798 607.8-86.801 50.4-182.602 70.799-275.602 65.799l224.202-344.798c63.799-98 62.6-225.8-13.201-314.4zM267.4 607.196c52.6 103.4 163.799 166.602 279 145l-127.4 249.602c-237.4-36.4-419-241.8-419-489.8 0-100.199 29.801-193.801 80.801-271.8z"></path>
</svg>
