<!-- Generated by IcoMoon.io -->
<svg version="1.1" xmlns="http://www.w3.org/2000/svg" width="1024" height="1024" viewBox="0 0 1024 1024">
<title></title>
<g id="icomoon-ignore">
</g>
<path d="M51.428 456.322c0.223-0.324 0.461-0.646 0.684-0.971-0.041 0.324-0.090 0.646-0.129 0.971h-0.555zM972.572 487.338l0.002 104.129h-628.146c2.768 256.994 382.784 248.13 544.51 135.143v208.808c-94.711 57.049-313.548 106.342-480.264 42.648-141.238-54.281-239.826-201.056-241.486-343.954-2.215-184.438 91.389-306.844 241.484-376.628-31.57 39.879-55.939 83.080-68.678 157.852h351.706c20.494-209.914-198.838-209.914-198.838-209.914-206.604 7.18-355.89 127.309-440.75 249.932 29.123-228.93 185.812-439.91 465.674-439.356 170.039 0 315.21 79.756 397.186 226.53 42.094 75.881 57.602 156.746 57.602 244.81z"></path>
</svg>
