<!-- Generated by IcoMoon.io -->
<svg version="1.1" xmlns="http://www.w3.org/2000/svg" width="960" height="1024" viewBox="0 0 960 1024">
<title></title>
<g id="icomoon-ignore">
</g>
<path d="M956.2 470.596c2.602 14.201 3.801 28.6 3.801 43.201v5.6c-2.801 68-23.199 134-59.199 191.799-2 3-3.602 5.801-5.4 8.602 5.4 14.398 5.199 30.199-0.801 44.398-10 38.801-33.199 72.801-65.799 96.201-21.602 17.4-45.4 32.4-70.602 44.199l-3.799 1.801-2 1c-3.4 1.4-6.6 2.799-9.801 4.199-4.799 10.201-11.6 19.201-19.799 26.6-5 6.201-60.201 70-227.602 70-47.199 0-94.398-7-139.6-20.6 1.6 0.6 3.201 1.4 4.801 2-5.201-1.799-10.4-3.6-15.4-5.4-38.199-11.799-74.4-29.199-107.6-51.6-81.4-49.4-145.801-122.4-184.6-209.4-29-62.799-42.201-131.6-38.801-200.6-5.6 16.6-10.4 33.4-14 50.6 0-58.398 11-116.199 32.4-170.398-11 15.799-20.6 32.6-28.6 50.199 11.398-46.199 29.398-90.4 53.6-131.199 7.4-12.201 15.799-23.801 25.4-34.201v-0.4c-0.201-5.398 0.199-11 1-16.6 3-32.6 11.398-64.4 24.799-94.199l0.6-1.4c0.201-0.6 0 2 0 3.4s-0.199 2.6 0 2c1.201-4 2.801-8 4.602-11.801 2-4.199 4.799-8.199 7.799-11.6 0.201-0.199 0.4-0.4 0.6-0.801 0.201-0.398-0.799 4-1 6.201v1c1.201-2.4 2.602-4.801 4.4-9 4.201-11.801 12-22 22.201-29l0.398-0.201c-0.6 18 2.4 35.801 8.801 52.4v0.201c0.6 0.799 1-2.602 1.801-2.602 0.199 0 0.398 0.201 0.398 0.4 1.801 3.6 3.602 7.201 5.4 10.4 2.6 4.4 5 8.4 7.4 12l0.801 0.4 0.398-0.201c5.201 8.4 11.801 15.602 19.4 21.801h-0.4l0.4 0.199c36.6-7.199 74.4-4 109.201 9.4l0.199-0.199c4.199-5.201 9.199-9.801 14.6-13.801 0 1.801-0.199 3.6-0.4 5.4 8-10 18.201-18 30-23-0.799 1.4-1 2.801-1 4.4 14.801-8.6 31-14.801 47.801-18 2.199 0-7 3.6-10.199 6.199 7.398-3.199 15.398-5.199 23.398-5.6 13.201-1.4 28 4.199 25.201 5.4-5.6 2-11 4.4-16.4 7-1.6 1.4 6.4-0.4 4.801 1-28 18.4-49.602 45.199-61.602 76.6v0.199c5 22 22.801 38.602 45 42.201 63 6 75 11.199 76.801 18.199v3c-0.199 2-0.4 3.801-0.6 5.6-2.4 13.801-9.801 26.4-20.4 35.4-2.801 2.6-5.801 5-9 7-2.199 1.4-12.801 5.6-25.6 11.201-15.801 6.398-31 14.199-45.4 23.199-2.6 1.6-4.801 3.4-6.801 5.4-0.799 0.799-2.398 3-2.398 3v0.199c1 2.4 2 4.801 2.398 7.4-2.799-3.4-5.398-2.199-3.799 1 1.799 5 2.6 10.4 2.199 15.6 0.4 9.6-1.4 19.201-5.199 28-4.201-3-8.6-5.799-13.201-8.199h-0.398c5 3.199 8.6 7.799 10.799 13.199 1.4 4.4-0.6 5.4-0.6 5.4-2.801-4-6.199-7.199-10.4-9.4-6.199-3.6-17.6-9.4-22.799-11.6-0.602 0.4-1 0.199-1.602 0.4 1.602 2.6 4.201 7.6 4.201 7.6s-3.6-2.199-9.6-5.199c-7.801 3.6-14.4 9.799-18.602 17.398-7 15.4-6.199 33.4 2 48.201 8 12 18.201 22.4 30 30.4 0.801 0.6-6.799-2.201-6.199-1.602 9.199 6.4 18.801 12.201 28.801 17.201 3 2-10-2.4-6.801-0.6 2.801 1.799 5.6 3.398 8.6 5 45.801 24.199 77.801-0.801 112.801-5.801 33.6-6 67.6 7.199 88.4 34 12 17-1.201 33.4-18 28h-0.4c-17.201-5.801-38.201 8.6-73.201 28-34.6 16.6-73.799 21.199-111.199 13.199-9.6-1.799-18.801-4.199-28-7.398l-4-1.4 0.4 0.6c17.6 24.4 39.799 45 65.6 60.6 17.4 8.801 35.801 15 54.801 18.6 16 3.801 32.398 5.602 49 5.602 122 0.199 221.2-98.801 221.2-220.8 0.199-31.801-6.199-63.6-18.6-93 41.4 24.6 75.199 60.4 97.6 103-27.801-81.199-80.6-112.801-129.4-153.199-39.199-29.602-69.4-69.801-86.799-115.801-50.4-135.6 66.199-265.8 66.199-265.8s-7.199 30.201 54.801 88.602c12.799 11.799 33.6 29 57.799 53.398 3.4-18.6 8.4-36.799 14.801-54.6 5 29.4 15.6 57.6 30.799 83.201 23.4 33.398 43.801 51.199 61.4 80 3.801 5 7.6 10.398 11.201 15.799 10.199 14.4 19 29.6 26.6 45.6 12 24 21.6 49 29 74.801 6 20.801 9.799 41.801 11.6 63.199 5.801-7.799 9.4-11.799 9.4-11.799s1.4 5.199 2.799 14.199zM358.2 275.396c-1 2.4-1.799 4.6-2.6 7 0.801-2.4 1.801-4.801 2.6-7z"></path>
</svg>
