<!-- Generated by IcoMoon.io -->
<svg version="1.1" xmlns="http://www.w3.org/2000/svg" width="1024" height="1024" viewBox="0 0 1024 1024">
<title></title>
<g id="icomoon-ignore">
</g>
<path d="M966.098 319.408c50.393 90.895 66.516 195.162 53.703 282.324h-657.584c0 200.864 288.62 272.058 393.636 94.871h241.666c-65.129 183.457-239.378 292.044-433.626 292.044-70.273 0-140.545-0.287-203.39-31.146-174.795 88.988-360.502 113.139-360.502-84.012 0-91.613 46.492-214.192 87.984-290.044 70.271-127.445 162.824-249.75 271.374-346.336-87.412 37.721-182.25 132.592-243.954 202.316 51.754-225.574 258.932-387.276 474.196-372.914 260.064-119.588 419.346-68.289 419.346 77.154 0 54.865-21.137 126.592-42.848 175.742zM129.117 693.75c-146.002 304.8 23.051 344.488 200.534 246.608-93.127-54.865-165.111-144.307-200.534-246.608zM361.072 476.004h415.922c-4-110.303-101.127-189.742-207.962-189.742-107.408 0-203.958 79.439-207.958 189.742zM730.144 100.804c92.553 36.004 171.965 114.588 224.526 199.172 14.283-37.721 29.139-95.729 29.139-135.734 0-64.010-45.705-107.443-108.549-107.443-47.99 0-102.266 23.432-145.115 44.006z"></path>
</svg>
