<!-- Generated by IcoMoon.io -->
<svg version="1.1" xmlns="http://www.w3.org/2000/svg" width="992" height="1024" viewBox="0 0 992 1024">
<title></title>
<g id="icomoon-ignore">
</g>
<path d="M627.8 65.396c-340.4 0-505.202 447.6-295 710.2 73 90.801 177.199 151.201 295 151.201 72.6 0 140.6-22.201 198.799-60.801-87.6 78.4-203.798 126-330.6 126-7.801 0-16 0-23.801-0.6-263-12.201-472.2-229.202-472.2-495.4 0-274 222-496 496-496h1.6c126.201 0.6 241.4 48.199 328.8 126.199-58-38.799-126.201-60.799-198.6-60.799zM831.4 860.797c-81.801 49.398-181.4 47.199-264-11.602 112.4-41 195.4-183.199 195.4-353.2 0-169.4-82.4-311.6-194.801-353.2 83.6-58.4 182.4-60.602 265.8-10 211.798 197.398 211 531.398-2.4 728z"></path>
</svg>
