<!-- Generated by IcoMoon.io -->
<svg version="1.1" xmlns="http://www.w3.org/2000/svg" width="1024" height="1024" viewBox="0 0 1024 1024">
<title></title>
<g id="icomoon-ignore">
</g>
<path fill="#000" d="M141.394 482c15.324-191.040 175.69-341.804 370.606-341.804s355.282 150.764 370.606 341.804h140.496c-15.536-268.802-238.406-482-511.102-482s-495.566 213.198-511.102 482z"></path>
<path fill="#000" d="M823.804 542v-30c0-171.93-139.876-311.804-311.804-311.804s-311.804 139.874-311.804 311.804v30h-199.298c15.536 268.802 238.406 482 511.102 482s495.566-213.198 511.102-482zM656.59 737.524c0 79.728-64.864 144.592-144.59 144.592-79.728 0-144.59-64.864-144.59-144.592v-201.072c0-79.726 64.862-144.59 144.59-144.59 79.726 0 144.59 64.864 144.59 144.59z"></path>
<path fill="#000" d="M512 451.862c-46.642 0-84.59 37.948-84.59 84.59v201.072c0 46.644 37.948 84.592 84.59 84.592s84.59-37.948 84.59-84.592v-201.072c0-46.644-37.948-84.59-84.59-84.59zM542 604.672h-60v-60h60z"></path>
</svg>
